<svg version="1.1" preserveAspectRatio="none" xmlns="http://www.w3.org/2000/svg" width="500" height="500" viewBox="0 0 500 500"><rect width="100%" height="100%" fill="#F1F1F1" fill-opacity="1"/><svg viewBox="129.3432 283.4441 379.9981 325.0535" width="333" height="284.8509387283778" x="83.5px" y="107.5745px" xmlns="http://www.w3.org/2000/svg" xmlns:xlink="http://www.w3.org/1999/xlink" preserveAspectRatio="none"><defs></defs><style>.companyName {fill:#3B3B6B;fill-opacity:1;}.icon1 {fill:#D24848;fill-opacity:1;}.icon2 {fill:#CCAF60;fill-opacity:1;}.icon3 {fill:#797468;fill-opacity:1;}.icon3-str {stroke:#797468;stroke-opacity:1;}.text {fill:#D24848;fill-opacity:1;}</style><g opacity="1" transform="rotate(0 129.3432 584.4976)">
<svg width="379.9981" height="24" x="129.3432" y="584.4976" version="1.1" preserveAspectRatio="none" viewBox="4.2 -30.28 606.04 38.28">
  <g transform="matrix(1 0 0 1 0 0)" class="text"><path id="id-6izo4zJp23" d="M4.20 0L4.20-28L8.20-28L8.20-3.48L23.36-3.48L23.36 0L4.20 0Z M52.28-10.48Q52.28-10.04 52.20-9.32L52.20-9.32L35-9.32Q35.36-6.52 37.46-4.82Q39.56-3.12 42.68-3.12L42.68-3.12Q46.48-3.12 48.80-5.68L48.80-5.68L50.92-3.20Q49.48-1.52 47.34-0.64Q45.20 0.24 42.56 0.24L42.56 0.24Q39.20 0.24 36.60-1.14Q34-2.52 32.58-5Q31.16-7.48 31.16-10.60L31.16-10.60Q31.16-13.68 32.54-16.16Q33.92-18.64 36.34-20.02Q38.76-21.40 41.80-21.40L41.80-21.40Q44.84-21.40 47.22-20.02Q49.60-18.64 50.94-16.16Q52.28-13.68 52.28-10.48L52.28-10.48ZM41.80-18.16Q39.04-18.16 37.18-16.48Q35.32-14.80 35-12.08L35-12.08L48.60-12.08Q48.28-14.76 46.42-16.46Q44.56-18.16 41.80-18.16L41.80-18.16Z M80.24-21.20L83.88-21.20L83.88-2.88Q83.88 2.68 81.12 5.34Q78.36 8 72.88 8L72.88 8Q69.88 8 67.16 7.18Q64.44 6.36 62.76 4.84L62.76 4.84L64.60 1.88Q66.08 3.16 68.26 3.90Q70.44 4.64 72.76 4.64L72.76 4.64Q76.48 4.64 78.26 2.88Q80.04 1.12 80.04-2.48L80.04-2.48L80.04-4.16Q78.68-2.52 76.70-1.70Q74.72-0.88 72.40-0.88L72.40-0.88Q69.36-0.88 66.90-2.18Q64.44-3.48 63.04-5.82Q61.64-8.16 61.64-11.16L61.64-11.16Q61.64-14.16 63.04-16.50Q64.44-18.84 66.90-20.12Q69.36-21.40 72.40-21.40L72.40-21.40Q74.80-21.40 76.86-20.52Q78.92-19.64 80.24-17.92L80.24-17.92L80.24-21.20ZM72.84-4.24Q74.92-4.24 76.58-5.12Q78.24-6 79.18-7.58Q80.12-9.16 80.12-11.16L80.12-11.16Q80.12-14.24 78.08-16.14Q76.04-18.04 72.84-18.04L72.84-18.04Q69.60-18.04 67.56-16.14Q65.52-14.24 65.52-11.16L65.52-11.16Q65.52-9.16 66.46-7.58Q67.40-6 69.06-5.12Q70.72-4.24 72.84-4.24L72.84-4.24Z M104.92-21.40Q109.32-21.40 111.66-19.24Q114-17.08 114-12.80L114-12.80L114 0L110.36 0L110.36-2.80Q109.40-1.32 107.62-0.54Q105.84 0.24 103.40 0.24L103.40 0.24Q99.84 0.24 97.70-1.48Q95.56-3.20 95.56-6L95.56-6Q95.56-8.80 97.60-10.50Q99.64-12.20 104.08-12.20L104.08-12.20L110.16-12.20L110.16-12.96Q110.16-15.44 108.72-16.76Q107.28-18.08 104.48-18.08L104.48-18.08Q102.60-18.08 100.80-17.46Q99-16.84 97.76-15.80L97.76-15.80L96.16-18.68Q97.80-20 100.08-20.70Q102.36-21.40 104.92-21.40L104.92-21.40ZM104.04-2.72Q106.24-2.72 107.84-3.70Q109.44-4.68 110.16-6.48L110.16-6.48L110.16-9.44L104.24-9.44Q99.36-9.44 99.36-6.16L99.36-6.16Q99.36-4.56 100.60-3.64Q101.84-2.72 104.04-2.72L104.04-2.72Z M127.12 0L127.12-29.68L130.96-29.68L130.96 0L127.12 0Z M181-5.04L181-14.16L184.84-14.16L184.84-3.24Q182.76-1.52 180-0.60Q177.24 0.32 174.24 0.32L174.24 0.32Q170 0.32 166.60-1.54Q163.20-3.40 161.26-6.66Q159.32-9.92 159.32-14L159.32-14Q159.32-18.08 161.26-21.36Q163.20-24.64 166.62-26.48Q170.04-28.32 174.32-28.32L174.32-28.32Q177.68-28.32 180.42-27.22Q183.16-26.12 185.08-24L185.08-24L182.60-21.52Q179.24-24.76 174.48-24.76L174.48-24.76Q171.28-24.76 168.74-23.38Q166.20-22 164.76-19.54Q163.32-17.08 163.32-14L163.32-14Q163.32-10.96 164.76-8.50Q166.20-6.04 168.74-4.64Q171.28-3.24 174.44-3.24L174.44-3.24Q178.20-3.24 181-5.04L181-5.04Z M213.84-21.20L217.68-21.20L217.68 0L214.04 0L214.04-3.20Q212.88-1.56 210.98-0.66Q209.08 0.24 206.84 0.24L206.84 0.24Q202.60 0.24 200.16-2.10Q197.72-4.44 197.72-9L197.72-9L197.72-21.20L201.56-21.20L201.56-9.44Q201.56-6.36 203.04-4.78Q204.52-3.20 207.28-3.20L207.28-3.20Q210.32-3.20 212.08-5.04Q213.84-6.88 213.84-10.24L213.84-10.24L213.84-21.20Z M238.72-21.40Q243.12-21.40 245.46-19.24Q247.80-17.08 247.80-12.80L247.80-12.80L247.80 0L244.16 0L244.16-2.80Q243.20-1.32 241.42-0.54Q239.64 0.24 237.20 0.24L237.20 0.24Q233.64 0.24 231.50-1.48Q229.36-3.20 229.36-6L229.36-6Q229.36-8.80 231.40-10.50Q233.44-12.20 237.88-12.20L237.88-12.20L243.96-12.20L243.96-12.96Q243.96-15.44 242.52-16.76Q241.08-18.08 238.28-18.08L238.28-18.08Q236.40-18.08 234.60-17.46Q232.80-16.84 231.56-15.80L231.56-15.80L229.96-18.68Q231.60-20 233.88-20.70Q236.16-21.40 238.72-21.40L238.72-21.40ZM237.84-2.72Q240.04-2.72 241.64-3.70Q243.24-4.68 243.96-6.48L243.96-6.48L243.96-9.44L238.04-9.44Q233.16-9.44 233.16-6.16L233.16-6.16Q233.16-4.56 234.40-3.64Q235.64-2.72 237.84-2.72L237.84-2.72Z M264.60-17.64Q265.60-19.48 267.56-20.44Q269.52-21.40 272.32-21.40L272.32-21.40L272.32-17.68Q272.00-17.72 271.44-17.72L271.44-17.72Q268.32-17.72 266.54-15.86Q264.76-14 264.76-10.56L264.76-10.56L264.76 0L260.92 0L260.92-21.20L264.60-21.20L264.60-17.64Z M299-29.68L302.84-29.68L302.84 0L299.16 0L299.16-3.36Q297.88-1.60 295.92-0.68Q293.96 0.24 291.60 0.24L291.60 0.24Q288.52 0.24 286.08-1.12Q283.64-2.48 282.26-4.94Q280.88-7.40 280.88-10.60L280.88-10.60Q280.88-13.80 282.26-16.24Q283.64-18.68 286.08-20.04Q288.52-21.40 291.60-21.40L291.60-21.40Q293.88-21.40 295.80-20.54Q297.72-19.68 299-18L299-18L299-29.68ZM291.92-3.12Q293.92-3.12 295.56-4.06Q297.20-5 298.12-6.70Q299.04-8.40 299.04-10.60L299.04-10.60Q299.04-12.80 298.12-14.50Q297.20-16.20 295.56-17.12Q293.92-18.04 291.92-18.04L291.92-18.04Q289.88-18.04 288.26-17.12Q286.64-16.20 285.70-14.50Q284.76-12.80 284.76-10.60L284.76-10.60Q284.76-8.40 285.70-6.70Q286.64-5 288.26-4.06Q289.88-3.12 291.92-3.12L291.92-3.12Z M316.12 0L316.12-21.20L319.96-21.20L319.96 0L316.12 0ZM318.04-25.28Q316.92-25.28 316.18-26Q315.44-26.72 315.44-27.76L315.44-27.76Q315.44-28.80 316.18-29.54Q316.92-30.28 318.04-30.28L318.04-30.28Q319.16-30.28 319.90-29.58Q320.64-28.88 320.64-27.84L320.64-27.84Q320.64-26.76 319.90-26.02Q319.16-25.28 318.04-25.28L318.04-25.28Z M341.00-21.40Q345.40-21.40 347.74-19.24Q350.08-17.08 350.08-12.80L350.08-12.80L350.08 0L346.44 0L346.44-2.80Q345.48-1.32 343.70-0.54Q341.92 0.24 339.48 0.24L339.48 0.24Q335.92 0.24 333.78-1.48Q331.64-3.20 331.64-6L331.64-6Q331.64-8.80 333.68-10.50Q335.72-12.20 340.16-12.20L340.16-12.20L346.24-12.20L346.24-12.96Q346.24-15.44 344.80-16.76Q343.36-18.08 340.56-18.08L340.56-18.08Q338.68-18.08 336.88-17.46Q335.08-16.84 333.84-15.80L333.84-15.80L332.24-18.68Q333.88-20 336.16-20.70Q338.44-21.40 341.00-21.40L341.00-21.40ZM340.12-2.72Q342.32-2.72 343.92-3.70Q345.52-4.68 346.24-6.48L346.24-6.48L346.24-9.44L340.32-9.44Q335.44-9.44 335.44-6.16L335.44-6.16Q335.44-4.56 336.68-3.64Q337.92-2.72 340.12-2.72L340.12-2.72Z M374.52-21.40Q378.56-21.40 380.94-19.06Q383.32-16.72 383.32-12.20L383.32-12.20L383.32 0L379.48 0L379.48-11.76Q379.48-14.84 378.00-16.40Q376.52-17.96 373.76-17.96L373.76-17.96Q370.64-17.96 368.84-16.14Q367.04-14.32 367.04-10.92L367.04-10.92L367.04 0L363.20 0L363.20-21.20L366.88-21.20L366.88-18Q368.04-19.64 370.02-20.52Q372.00-21.40 374.52-21.40L374.52-21.40Z M402.52 0.24Q399.92 0.24 397.52-0.46Q395.12-1.16 393.76-2.24L393.76-2.24L395.36-5.28Q396.76-4.28 398.76-3.68Q400.76-3.08 402.80-3.08L402.80-3.08Q407.84-3.08 407.84-5.96L407.84-5.96Q407.84-6.92 407.16-7.48Q406.48-8.04 405.46-8.30Q404.44-8.56 402.56-8.88L402.56-8.88Q400.00-9.28 398.38-9.80Q396.76-10.32 395.60-11.56Q394.44-12.80 394.44-15.04L394.44-15.04Q394.44-17.92 396.84-19.66Q399.24-21.40 403.28-21.40L403.28-21.40Q405.40-21.40 407.52-20.88Q409.64-20.36 411.00-19.48L411.00-19.48L409.36-16.44Q406.76-18.12 403.24-18.12L403.24-18.12Q400.80-18.12 399.52-17.32Q398.24-16.52 398.24-15.20L398.24-15.20Q398.24-14.16 398.96-13.56Q399.68-12.96 400.74-12.68Q401.80-12.40 403.72-12.04L403.72-12.04Q406.28-11.60 407.86-11.10Q409.44-10.60 410.56-9.40Q411.68-8.20 411.68-6.04L411.68-6.04Q411.68-3.16 409.22-1.46Q406.76 0.24 402.52 0.24L402.52 0.24Z M447.00-26.76Q443.56-26.76 443.56-23.04L443.56-23.04L443.56-21.20L449.72-21.20L449.72-18.04L443.64-18.04L443.64 0L439.80 0L439.80-18.04L436.20-18.04L436.20-21.20L439.80-21.20L439.80-23.08Q439.80-26.24 441.64-28.08Q443.48-29.92 446.80-29.92L446.80-29.92Q448.08-29.92 449.20-29.60Q450.32-29.28 451.12-28.68L451.12-28.68L449.96-25.76Q448.64-26.76 447.00-26.76L447.00-26.76Z M468.12 0.24Q464.96 0.24 462.44-1.16Q459.92-2.56 458.50-5.02Q457.08-7.48 457.08-10.60L457.08-10.60Q457.08-13.72 458.50-16.18Q459.92-18.64 462.44-20.02Q464.96-21.40 468.12-21.40L468.12-21.40Q471.28-21.40 473.78-20.02Q476.28-18.64 477.70-16.18Q479.12-13.72 479.12-10.60L479.12-10.60Q479.12-7.48 477.70-5.02Q476.28-2.56 473.78-1.16Q471.28 0.24 468.12 0.24L468.12 0.24ZM468.12-3.12Q470.16-3.12 471.78-4.06Q473.40-5 474.32-6.70Q475.24-8.40 475.24-10.60L475.24-10.60Q475.24-12.80 474.32-14.50Q473.40-16.20 471.78-17.12Q470.16-18.04 468.12-18.04L468.12-18.04Q466.08-18.04 464.46-17.12Q462.84-16.20 461.90-14.50Q460.96-12.80 460.96-10.60L460.96-10.60Q460.96-8.40 461.90-6.70Q462.84-5 464.46-4.06Q466.08-3.12 468.12-3.12L468.12-3.12Z M494.12-17.64Q495.12-19.48 497.08-20.44Q499.04-21.40 501.84-21.40L501.84-21.40L501.84-17.68Q501.52-17.72 500.96-17.72L500.96-17.72Q497.84-17.72 496.06-15.86Q494.28-14 494.28-10.56L494.28-10.56L494.28 0L490.44 0L490.44-21.20L494.12-21.20L494.12-17.64Z M552-28L540.88-9.68L540.88 0L536.92 0L536.92-9.76L525.80-28L530.08-28L539.04-13.24L548.04-28L552-28Z M568.16 0.24Q565 0.24 562.48-1.16Q559.96-2.56 558.54-5.02Q557.12-7.48 557.12-10.60L557.12-10.60Q557.12-13.72 558.54-16.18Q559.96-18.64 562.48-20.02Q565-21.40 568.16-21.40L568.16-21.40Q571.32-21.40 573.82-20.02Q576.32-18.64 577.74-16.18Q579.16-13.72 579.16-10.60L579.16-10.60Q579.16-7.48 577.74-5.02Q576.32-2.56 573.82-1.16Q571.32 0.24 568.16 0.24L568.16 0.24ZM568.16-3.12Q570.20-3.12 571.82-4.06Q573.44-5 574.36-6.70Q575.28-8.40 575.28-10.60L575.28-10.60Q575.28-12.80 574.36-14.50Q573.44-16.20 571.82-17.12Q570.20-18.04 568.16-18.04L568.16-18.04Q566.12-18.04 564.50-17.12Q562.88-16.20 561.94-14.50Q561-12.80 561-10.60L561-10.60Q561-8.40 561.94-6.70Q562.88-5 564.50-4.06Q566.12-3.12 568.16-3.12L568.16-3.12Z M606.40-21.20L610.24-21.20L610.24 0L606.60 0L606.60-3.20Q605.44-1.56 603.54-0.66Q601.64 0.24 599.40 0.24L599.40 0.24Q595.16 0.24 592.72-2.10Q590.28-4.44 590.28-9L590.28-9L590.28-21.20L594.12-21.20L594.12-9.44Q594.12-6.36 595.60-4.78Q597.08-3.20 599.84-3.20L599.84-3.20Q602.88-3.20 604.64-5.04Q606.40-6.88 606.40-10.24L606.40-10.24L606.40-21.20Z"/></g>
</svg>
</g><g opacity="1" transform="rotate(0 134.7169 482.4976)">
<svg width="369.2507" height="80" x="134.7169" y="482.4976" version="1.1" preserveAspectRatio="none" viewBox="1.76 -30.88 179.64000000000001 38.92">
  <g transform="matrix(1 0 0 1 0 0)" class="companyName"><path id="id-D6z1nYkh9" d="M16.72 0.40Q12.48 0.40 9.06-1.46Q5.64-3.32 3.70-6.60Q1.76-9.88 1.76-14L1.76-14Q1.76-18.12 3.72-21.40Q5.68-24.68 9.10-26.54Q12.52-28.40 16.76-28.40L16.76-28.40Q20.20-28.40 23.04-27.20Q25.88-26 27.84-23.72L27.84-23.72L24.48-20.56Q21.44-23.84 17-23.84L17-23.84Q14.12-23.84 11.84-22.58Q9.56-21.32 8.28-19.08Q7-16.84 7-14L7-14Q7-11.16 8.28-8.92Q9.56-6.68 11.84-5.42Q14.12-4.16 17-4.16L17-4.16Q21.44-4.16 24.48-7.48L24.48-7.48L27.84-4.28Q25.88-2 23.02-0.80Q20.16 0.40 16.72 0.40L16.72 0.40Z M47.56-21.36L52.36-21.36L42.36 1.72Q40.96 5.20 38.96 6.62Q36.96 8.04 34.12 8.04L34.12 8.04Q32.52 8.04 30.96 7.52Q29.40 7 28.40 6.08L28.40 6.08L30.40 2.40Q31.12 3.08 32.10 3.48Q33.08 3.88 34.08 3.88L34.08 3.88Q35.40 3.88 36.26 3.20Q37.12 2.52 37.84 0.92L37.84 0.92L38.20 0.08L28.88-21.36L34.08-21.36L40.80-5.56L47.56-21.36Z M67.32-21.60Q70.44-21.60 72.90-20.24Q75.36-18.88 76.76-16.40Q78.16-13.92 78.16-10.68L78.16-10.68Q78.16-7.44 76.76-4.94Q75.36-2.44 72.90-1.08Q70.44 0.28 67.32 0.28L67.32 0.28Q65.12 0.28 63.30-0.48Q61.48-1.24 60.24-2.76L60.24-2.76L60.24 0L55.48 0L55.48-29.68L60.48-29.68L60.48-18.76Q61.76-20.16 63.50-20.88Q65.24-21.60 67.32-21.60L67.32-21.60ZM66.76-4Q69.52-4 71.30-5.84Q73.08-7.68 73.08-10.68L73.08-10.68Q73.08-13.68 71.30-15.52Q69.52-17.36 66.76-17.36L66.76-17.36Q64.96-17.36 63.52-16.54Q62.08-15.72 61.24-14.20Q60.40-12.68 60.40-10.68L60.40-10.68Q60.40-8.68 61.24-7.16Q62.08-5.64 63.52-4.82Q64.96-4 66.76-4L66.76-4Z M103-10.56Q103-10.04 102.92-9.08L102.92-9.08L86.16-9.08Q86.60-6.72 88.46-5.34Q90.32-3.96 93.08-3.96L93.08-3.96Q96.60-3.96 98.88-6.28L98.88-6.28L101.56-3.20Q100.12-1.48 97.92-0.60Q95.72 0.28 92.96 0.28L92.96 0.28Q89.44 0.28 86.76-1.12Q84.08-2.52 82.62-5.02Q81.16-7.52 81.16-10.68L81.16-10.68Q81.16-13.80 82.58-16.30Q84-18.80 86.52-20.20Q89.04-21.60 92.20-21.60L92.20-21.60Q95.32-21.60 97.78-20.22Q100.24-18.84 101.62-16.34Q103-13.84 103-10.56L103-10.56ZM92.20-17.60Q89.80-17.60 88.14-16.18Q86.48-14.76 86.12-12.40L86.12-12.40L98.24-12.40Q97.92-14.72 96.28-16.16Q94.64-17.60 92.20-17.60L92.20-17.60Z M112.56-18.24Q114.72-21.60 120.16-21.60L120.16-21.60L120.16-16.84Q119.52-16.96 119-16.96L119-16.96Q116.08-16.96 114.44-15.26Q112.80-13.56 112.80-10.36L112.80-10.36L112.80 0L107.80 0L107.80-21.36L112.56-21.36L112.56-18.24Z M124.68 0L124.68-28L129.88-28L129.88 0L124.68 0Z M141.72-18.24Q143.88-21.60 149.32-21.60L149.32-21.60L149.32-16.84Q148.68-16.96 148.16-16.96L148.16-16.96Q145.24-16.96 143.60-15.26Q141.96-13.56 141.96-10.36L141.96-10.36L141.96 0L136.96 0L136.96-21.36L141.72-21.36L141.72-18.24Z M153.56 0L153.56-21.36L158.56-21.36L158.56 0L153.56 0ZM156.08-24.88Q154.72-24.88 153.80-25.74Q152.88-26.60 152.88-27.88L152.88-27.88Q152.88-29.16 153.80-30.02Q154.72-30.88 156.08-30.88L156.08-30.88Q157.44-30.88 158.36-30.06Q159.28-29.24 159.28-28L159.28-28Q159.28-26.68 158.38-25.78Q157.48-24.88 156.08-24.88L156.08-24.88Z M171.72 0.28Q169.12 0.28 166.64-0.40Q164.16-1.08 162.68-2.12L162.68-2.12L164.60-5.92Q166.04-4.96 168.06-4.38Q170.08-3.80 172.04-3.80L172.04-3.80Q176.52-3.80 176.52-6.16L176.52-6.16Q176.52-7.28 175.38-7.72Q174.24-8.16 171.72-8.56L171.72-8.56Q169.08-8.96 167.42-9.48Q165.76-10 164.54-11.30Q163.32-12.60 163.32-14.92L163.32-14.92Q163.32-17.96 165.86-19.78Q168.40-21.60 172.72-21.60L172.72-21.60Q174.92-21.60 177.12-21.10Q179.32-20.60 180.72-19.76L180.72-19.76L178.80-15.96Q176.08-17.56 172.68-17.56L172.68-17.56Q170.48-17.56 169.34-16.90Q168.20-16.24 168.20-15.16L168.20-15.16Q168.20-13.96 169.42-13.46Q170.64-12.96 173.20-12.52L173.20-12.52Q175.76-12.12 177.40-11.60Q179.04-11.08 180.22-9.84Q181.40-8.60 181.40-6.32L181.40-6.32Q181.40-3.32 178.80-1.52Q176.20 0.28 171.72 0.28L171.72 0.28Z"/></g>
</svg>
</g><g opacity="1" transform="rotate(0 227.0296 283.4441)">
<svg width="184.6254" height="169.0535" x="227.0296" y="283.4441" version="1.1" preserveAspectRatio="none" viewBox="11.513999938964844 14.760000228881836 76.97200012207031 70.4800033569336">
  <g transform="matrix(1 0 0 1 0 0)" class="icon1"><g><rect x="12.442" y="79.24" width="75.116" height="6"></rect><polygon points="50,21.267 86.164,36.447 88.486,30.915 50,14.76 11.514,30.915 13.836,36.447  "></polygon><path d="M17.881,67.24v6h5.439h6h9.786h6h9.786h6h9.786h6h5.439v-6h-5.439V44.585h5.439v-6h-5.439h-6h-9.786h-6h-9.786h-6h-9.786   h-6h-5.439v6h5.439V67.24H17.881z M70.679,44.585V67.24h-9.786V44.585H70.679z M54.893,44.585V67.24h-9.786V44.585H54.893z    M29.321,44.585h9.786V67.24h-9.786V44.585z"></path></g></g>
</svg>
</g></svg></svg>